<?xml version="1.0" standalone="no"?>
<!DOCTYPE svg PUBLIC "-//W3C//DTD SVG 20010904//EN"
 "http://www.w3.org/TR/2001/REC-SVG-20010904/DTD/svg10.dtd">
<svg version="1.0" xmlns="http://www.w3.org/2000/svg"
 width="1280.000000pt" height="773.000000pt" viewBox="0 0 1280.000000 773.000000"
 preserveAspectRatio="xMidYMid meet">
<metadata>
Created by potrace 1.15, written by Peter Selinger 2001-2017
</metadata>
<g transform="translate(0.000000,773.000000) scale(0.100000,-0.100000)"
fill="#2196f3" stroke="none">
<path d="M7040 7719 c-192 -9 -347 -25 -384 -39 -21 -7 -26 -16 -26 -42 0 -26
11 -43 58 -89 94 -91 128 -100 417 -110 518 -19 636 -26 646 -36 16 -16 -52
-28 -259 -43 -74 -5 -151 -14 -171 -20 -53 -14 -93 -47 -89 -73 4 -27 72 -67
113 -67 35 0 75 -24 75 -46 0 -11 -18 -14 -87 -14 -115 0 -156 12 -228 68
-176 136 -183 140 -242 152 -32 6 -105 26 -163 45 -58 18 -136 39 -175 45
-219 36 -281 52 -365 93 l-85 42 -210 0 c-196 0 -213 -1 -258 -22 -27 -13 -62
-34 -78 -47 -16 -14 -55 -32 -86 -41 -72 -21 -139 -63 -191 -119 -107 -116
-96 -193 45 -331 64 -63 240 -217 289 -254 l32 -23 498 -4 c275 -2 542 -8 594
-14 86 -9 100 -14 150 -49 30 -21 82 -52 115 -69 156 -78 437 -338 493 -455
24 -51 59 -96 151 -191 70 -72 130 -145 145 -174 14 -27 33 -91 42 -142 26
-140 43 -155 221 -185 139 -23 214 -50 296 -105 83 -55 307 -264 307 -286 0
-24 -25 -15 -83 30 -31 24 -75 48 -99 54 -24 6 -81 34 -127 61 -103 61 -130
66 -323 58 -166 -7 -219 -22 -255 -73 -34 -49 -141 -267 -152 -309 -18 -72
-23 -178 -12 -240 16 -88 35 -101 158 -110 156 -10 233 -29 347 -84 122 -60
283 -165 383 -250 116 -99 203 -218 130 -179 -12 6 -56 39 -99 74 -42 34 -109
81 -150 104 -40 24 -106 62 -147 86 -40 24 -95 50 -123 59 -27 8 -90 38 -141
67 -124 72 -148 71 -322 -3 -71 -31 -149 -61 -173 -68 -37 -10 -47 -19 -63
-54 -32 -71 -26 -145 20 -246 22 -47 54 -141 70 -208 17 -66 44 -158 61 -202
20 -54 31 -106 34 -154 3 -59 10 -86 41 -146 49 -98 114 -160 220 -211 80 -38
85 -43 117 -102 41 -78 68 -94 207 -123 75 -16 133 -36 188 -64 86 -45 122
-51 363 -70 118 -10 129 -12 205 -52 160 -83 284 -58 501 104 32 25 88 59 124
77 108 54 276 232 340 359 35 71 134 362 151 443 18 93 26 105 74 117 54 14
185 14 205 1 13 -9 11 -13 -10 -30 -14 -10 -42 -22 -62 -25 -47 -8 -86 -39
-104 -80 -7 -18 -18 -72 -24 -121 -29 -238 -91 -360 -309 -612 -72 -83 -120
-150 -152 -210 l-45 -87 -50 -7 c-27 -3 -80 -7 -117 -7 -37 -1 -83 -8 -102
-15 -30 -13 -35 -20 -35 -49 0 -50 55 -126 238 -331 113 -126 176 -206 213
-270 66 -114 207 -260 289 -299 83 -40 141 -47 395 -47 264 0 308 6 406 54 67
33 164 60 261 71 26 3 61 17 80 30 67 49 127 74 214 90 126 23 207 48 299 93
95 47 117 68 145 143 13 37 53 97 115 175 57 70 95 127 95 140 0 53 -99 87
-253 86 -120 -1 -177 -16 -234 -63 -26 -21 -76 -50 -112 -64 -37 -15 -97 -45
-136 -68 l-69 -42 -198 -3 c-109 -2 -252 1 -318 7 -213 18 -184 34 99 56 248
19 322 34 424 84 55 27 112 46 172 57 50 9 116 27 148 40 32 14 100 33 152 44
52 10 114 28 138 40 132 66 377 293 432 400 39 74 29 274 -17 365 -45 88 -242
260 -332 291 -103 35 -211 -17 -422 -206 -101 -91 -260 -208 -321 -238 -120
-59 -75 26 105 200 154 147 301 259 404 307 89 41 148 94 148 135 0 31 -43 88
-123 163 -84 78 -149 117 -182 109 -13 -3 -58 -33 -100 -67 -99 -79 -220 -157
-321 -207 -110 -55 -150 -102 -189 -221 -29 -90 -130 -171 -212 -171 -50 0
-83 23 -83 59 0 33 21 54 75 77 59 24 101 69 148 158 70 134 139 192 273 226
22 5 59 26 82 45 64 55 97 135 126 304 14 79 31 150 38 157 7 8 38 18 68 24
64 12 70 7 70 -66 0 -97 56 -212 141 -289 24 -22 85 -65 134 -94 107 -64 180
-119 295 -221 193 -171 290 -240 338 -240 65 0 84 44 111 254 20 153 27 177
76 244 13 18 36 64 50 103 15 38 43 92 62 120 47 69 78 190 70 279 -7 82 -27
138 -76 215 -21 33 -46 83 -55 111 -11 32 -36 74 -66 109 -38 42 -50 64 -50
88 0 20 -18 63 -50 117 -27 47 -50 93 -50 103 0 33 -38 91 -119 186 -96 110
-125 150 -176 249 -47 91 -91 129 -225 196 -58 29 -134 68 -170 86 -58 31 -75
35 -160 38 -107 4 -145 -6 -162 -43 -15 -33 8 -93 73 -189 54 -82 114 -141
189 -187 86 -53 93 -95 26 -167 -53 -57 -66 -82 -66 -122 0 -54 28 -101 115
-189 93 -96 102 -119 65 -171 -24 -34 -80 -70 -108 -70 -22 0 -24 6 -42 120
-14 95 -26 128 -67 195 -37 59 -38 62 -38 160 0 107 -5 121 -60 190 -17 22
-41 64 -53 93 -12 30 -35 71 -52 92 -44 56 -67 115 -84 216 -11 64 -28 113
-58 173 -33 66 -43 97 -44 142 -3 69 -9 81 -89 184 -122 156 -325 335 -403
353 -20 5 -63 15 -94 21 -32 7 -106 36 -165 65 -60 29 -125 59 -146 65 -21 7
-73 40 -115 74 -114 91 -175 124 -297 162 -61 19 -176 61 -256 94 -235 95
-413 131 -491 98 -68 -29 -58 -48 122 -233 145 -148 185 -202 166 -222 -4 -3
-31 19 -60 50 -39 41 -69 61 -112 77 -76 28 -108 50 -229 156 -149 130 -185
151 -306 181 -63 15 -132 40 -174 63 -38 21 -102 50 -142 64 -39 14 -92 42
-117 61 -57 43 -105 53 -316 66 -188 11 -724 11 -970 -1z m1360 -595 c72 -47
157 -117 307 -253 85 -76 134 -113 161 -120 20 -6 154 -11 300 -11 312 0 367
-7 470 -60 42 -22 117 -51 165 -65 105 -30 163 -58 277 -135 47 -32 128 -81
180 -110 52 -29 127 -79 167 -110 86 -70 162 -100 266 -107 43 -3 80 -10 83
-15 10 -16 -17 -36 -59 -43 -111 -19 -126 -64 -53 -161 24 -33 105 -126 181
-209 154 -167 204 -237 234 -326 28 -83 116 -212 217 -318 103 -109 167 -159
264 -207 41 -20 100 -54 131 -75 69 -47 197 -182 206 -218 8 -35 35 -89 83
-162 55 -86 54 -159 -2 -159 -22 0 -68 89 -68 132 0 18 -15 45 -45 78 -25 28
-45 61 -45 73 0 32 -52 110 -111 168 -27 26 -91 71 -142 100 -50 28 -150 91
-222 139 -71 49 -139 91 -150 94 -33 9 -80 -27 -104 -81 -44 -98 -56 -118 -71
-118 -24 0 -31 60 -36 325 l-6 255 -185 183 c-195 195 -255 266 -309 374 -66
132 -237 285 -370 332 -43 16 -109 48 -145 71 -148 96 -312 174 -489 233 -68
22 -95 25 -281 29 -234 6 -253 1 -284 -63 -38 -80 3 -146 119 -190 102 -39
179 -118 224 -232 19 -46 49 -103 68 -127 18 -24 48 -73 65 -107 50 -101 91
-142 232 -235 177 -117 309 -243 338 -325 38 -102 123 -154 373 -226 87 -25
155 -51 180 -69 47 -33 128 -159 170 -268 16 -38 38 -80 49 -93 12 -13 62 -43
112 -67 92 -44 175 -106 175 -130 0 -19 -88 -30 -233 -30 -113 0 -120 1 -138
24 -10 13 -19 33 -19 46 0 35 -25 88 -66 136 -50 60 -64 96 -71 192 -3 45 -10
90 -15 100 -14 27 -63 44 -164 57 -86 12 -175 47 -389 157 -57 30 -104 84
-130 153 -46 122 -181 253 -292 285 -32 9 -89 35 -126 58 -86 50 -132 53 -203
12 -51 -29 -242 -213 -263 -252 -10 -21 -5 -30 58 -98 90 -96 128 -153 153
-223 14 -39 38 -75 79 -119 32 -35 59 -70 59 -78 0 -32 -36 -12 -112 63 -154
149 -328 373 -328 422 0 40 62 127 208 294 72 82 139 165 149 185 21 44 21
126 -1 228 -32 151 -48 166 -204 199 -57 12 -111 29 -119 36 -7 8 -23 52 -33
98 -11 45 -37 114 -57 152 -64 122 -224 275 -313 298 -25 7 -78 28 -118 47
l-73 35 -57 -35 c-77 -47 -119 -64 -210 -82 -42 -9 -111 -32 -152 -51 -69 -33
-75 -34 -87 -18 -7 10 -13 35 -13 56 0 32 5 41 31 57 16 10 58 24 92 31 134
26 147 33 336 165 83 59 123 60 201 9z m3534 -1733 c125 -100 247 -244 309
-366 14 -27 50 -87 80 -133 70 -105 82 -152 81 -317 0 -141 -21 -265 -51 -297
-16 -18 -17 -18 -27 -1 -5 9 -11 143 -14 298 l-5 280 -81 80 c-45 44 -120 134
-166 200 -46 66 -107 149 -135 185 -28 36 -60 77 -69 93 -17 25 -17 27 -1 27
9 0 45 -22 79 -49z m-2814 -705 c5 -14 14 -91 20 -173 18 -238 32 -285 99
-313 45 -18 92 -5 158 44 65 49 102 61 215 71 48 4 93 15 120 28 44 23 50 34
77 134 6 23 29 64 51 92 70 89 116 94 70 9 -15 -29 -42 -88 -60 -130 -54 -132
-130 -185 -344 -237 -142 -35 -329 -101 -358 -128 -10 -9 -22 -32 -27 -52 -6
-20 -15 -223 -21 -451 -11 -439 -14 -478 -37 -487 -25 -10 -32 9 -48 125 -18
127 -27 157 -57 190 -31 32 -65 27 -142 -19 -86 -52 -129 -52 -134 0 -4 44 33
84 106 111 108 41 175 107 203 202 12 41 26 229 34 453 9 255 26 505 36 532
11 30 27 29 39 -1z m1414 -262 c34 -13 15 -39 -52 -71 -37 -17 -91 -52 -120
-77 -55 -48 -88 -58 -99 -30 -9 25 83 110 161 149 71 36 83 39 110 29z m584
-1644 c39 -24 41 -38 5 -46 -54 -12 -99 -27 -143 -49 -75 -38 -174 -64 -308
-81 -85 -11 -147 -24 -187 -42 -60 -25 -63 -25 -384 -29 -180 -3 -327 -1 -332
4 -5 5 99 14 249 21 331 16 373 22 472 72 56 28 106 45 172 56 111 19 168 37
221 71 57 36 76 42 142 42 43 1 69 -5 93 -19z"/>
<path d="M4743 7321 c-128 -100 -172 -208 -173 -414 0 -201 92 -347 257 -406
32 -11 76 -30 98 -42 126 -68 158 -81 241 -98 50 -11 119 -31 152 -45 l60 -26
55 26 c110 50 175 57 507 57 176 0 329 -5 362 -11 32 -6 95 -27 140 -46 46
-19 95 -37 111 -41 15 -3 27 -10 27 -15 0 -18 -54 -25 -195 -25 -136 1 -142 2
-225 35 -82 33 -90 34 -215 34 -111 0 -138 -3 -186 -22 -148 -59 -137 -113 65
-321 151 -154 340 -311 428 -355 34 -17 70 -42 80 -56 33 -45 41 -146 34 -435
-6 -276 -13 -346 -32 -352 -14 -5 -19 31 -39 277 -26 331 -32 379 -55 424 -43
82 -170 194 -335 294 -55 33 -164 112 -243 176 -165 132 -204 154 -304 167
-92 12 -118 23 -176 71 -29 24 -68 44 -102 53 -30 9 -86 31 -125 50 -38 18
-96 41 -127 50 -44 12 -71 28 -118 72 -69 64 -90 97 -90 146 0 22 -11 49 -31
77 -45 62 -57 97 -75 217 -29 193 -69 285 -154 352 -57 45 -129 66 -177 52
-18 -5 -51 -23 -75 -39 -65 -45 -97 -59 -163 -72 -113 -22 -156 -42 -257 -117
-55 -42 -123 -84 -151 -95 -92 -35 -139 -71 -379 -289 -64 -59 -144 -124 -177
-145 -153 -97 -213 -139 -305 -218 -120 -103 -202 -147 -325 -176 -114 -27
-136 -45 -194 -160 -48 -96 -95 -140 -179 -165 -108 -32 -139 -79 -146 -223
-4 -87 -3 -95 22 -133 30 -45 65 -62 103 -52 15 3 72 27 127 53 56 26 117 51
136 55 47 10 101 38 125 65 29 32 69 47 178 64 52 9 137 29 189 46 51 17 143
39 203 50 186 32 230 55 374 194 112 109 195 211 253 309 77 132 219 258 336
298 33 11 90 40 127 65 38 24 85 49 105 55 40 12 82 9 87 -6 2 -6 -19 -46 -47
-90 -63 -100 -67 -140 -17 -190 20 -20 51 -38 78 -45 63 -16 69 -18 69 -29 0
-16 -27 -20 -187 -26 -193 -8 -250 -18 -300 -54 -21 -15 -90 -53 -153 -83
-149 -73 -202 -125 -274 -270 -65 -131 -87 -147 -252 -188 -67 -16 -155 -43
-195 -59 -92 -36 -144 -46 -337 -66 -84 -8 -170 -21 -192 -29 -37 -13 -107
-60 -215 -147 -71 -56 -136 -73 -255 -65 -275 18 -299 19 -345 7 -27 -7 -66
-25 -89 -40 -23 -16 -88 -51 -146 -79 -88 -42 -123 -66 -215 -149 -133 -120
-253 -253 -260 -291 -13 -58 -38 -96 -138 -205 -162 -176 -215 -246 -239 -311
-12 -33 -38 -80 -57 -105 -33 -44 -60 -100 -61 -130 0 -7 -14 -31 -31 -52 -41
-53 -56 -105 -69 -251 -13 -147 -23 -189 -51 -214 -39 -35 -70 -103 -84 -181
-19 -106 -29 -136 -65 -199 -53 -94 -64 -165 -64 -384 0 -177 2 -200 22 -251
28 -71 98 -139 188 -181 56 -26 68 -29 93 -18 36 15 65 66 89 164 11 43 36
104 55 135 49 79 57 114 66 306 12 230 23 257 168 423 33 39 79 102 102 140
74 127 164 231 286 331 76 63 105 81 129 81 27 0 17 -24 -23 -51 -24 -17 -47
-46 -65 -84 -47 -100 -83 -144 -281 -345 -106 -107 -198 -205 -204 -217 -7
-14 -11 -89 -11 -201 0 -221 -16 -323 -69 -442 -47 -104 -48 -108 -65 -300
-16 -167 -30 -223 -77 -298 -34 -56 -48 -131 -49 -262 0 -94 16 -140 61 -173
26 -19 28 -19 65 -1 65 31 139 111 160 174 11 30 32 80 48 110 16 30 39 75 52
100 15 28 29 84 39 150 21 144 40 212 80 299 44 93 44 118 -1 172 -60 72 -66
90 -43 130 50 86 89 176 99 228 14 69 35 126 61 162 10 15 22 42 26 61 22 116
146 223 250 216 43 -3 48 -5 48 -27 0 -18 -19 -40 -75 -86 -75 -61 -120 -121
-120 -161 0 -12 -20 -52 -45 -90 -61 -92 -72 -134 -85 -326 -6 -90 -15 -227
-21 -306 -7 -113 -14 -155 -33 -200 -13 -31 -36 -104 -52 -162 -43 -165 -95
-277 -183 -395 -77 -103 -79 -127 -16 -253 58 -116 151 -219 237 -261 34 -17
69 -31 79 -31 10 0 51 -13 92 -30 95 -38 160 -47 429 -61 248 -12 619 1 728
26 146 34 279 86 343 133 51 37 72 47 114 50 62 5 137 -16 203 -58 69 -43 117
-51 309 -52 197 -1 217 3 331 72 36 21 84 44 108 50 23 6 99 49 169 96 121 81
170 103 265 119 21 3 80 28 133 56 53 28 120 59 148 68 29 10 80 32 115 50
113 57 169 66 442 66 236 0 388 -13 433 -36 49 -27 3 -33 -423 -54 -191 -9
-298 -19 -325 -28 -22 -8 -119 -52 -215 -97 -324 -152 -388 -179 -465 -200
-42 -11 -100 -32 -128 -47 -56 -28 -190 -156 -202 -193 -10 -30 54 -121 121
-173 89 -69 152 -90 291 -95 115 -4 124 -3 175 22 29 14 72 41 96 61 24 19 62
39 85 46 23 6 81 28 129 50 85 38 144 56 257 79 30 6 89 26 130 44 42 19 93
38 113 41 23 4 56 23 82 46 59 52 100 68 204 78 102 10 128 19 175 60 52 46
96 61 184 61 95 0 195 16 237 37 17 8 48 31 69 51 35 34 38 35 54 19 42 -41
-39 -118 -165 -158 -37 -11 -125 -26 -197 -33 -144 -14 -180 -26 -243 -79 -25
-21 -59 -39 -80 -42 -157 -25 -213 -46 -317 -120 -86 -60 -110 -71 -237 -105
-130 -36 -178 -61 -236 -124 -45 -49 -48 -59 -28 -94 20 -37 165 -179 221
-217 72 -49 145 -58 439 -53 231 4 244 5 308 31 133 52 308 47 498 -14 120
-39 209 -37 310 5 36 15 106 38 157 51 50 13 127 40 171 60 45 21 87 35 94 32
8 -3 -27 -45 -94 -112 -60 -58 -108 -110 -108 -115 0 -15 122 -118 171 -144
92 -50 148 -57 506 -63 250 -4 340 -2 362 7 32 13 428 409 573 573 62 70 91
111 99 140 6 23 16 48 21 55 15 17 63 15 78 -3 19 -23 -1 -59 -102 -186 -106
-133 -131 -189 -132 -289 -1 -123 46 -174 159 -173 72 1 134 21 218 71 34 20
93 49 132 65 38 15 78 36 88 45 11 9 41 60 68 112 27 52 61 115 74 139 14 24
25 57 25 72 0 16 14 45 35 71 48 60 59 82 51 113 -8 33 -55 61 -126 76 -30 6
-80 24 -110 39 -30 15 -93 35 -140 44 -61 11 -116 31 -195 70 -60 29 -132 62
-158 71 -80 28 -200 136 -183 164 17 27 187 1 269 -40 23 -12 72 -43 108 -70
79 -58 138 -84 221 -99 81 -14 135 -34 205 -76 30 -18 85 -43 122 -55 36 -11
91 -36 122 -55 64 -38 120 -53 202 -54 69 0 116 18 167 64 21 19 65 43 102 55
81 27 147 68 181 113 37 48 77 160 84 234 7 81 -7 135 -67 259 -33 68 -55 131
-69 197 -24 115 -31 130 -110 228 -35 44 -78 114 -103 168 -41 89 -45 93 -83
102 -74 19 -119 47 -255 162 -74 62 -153 124 -174 136 -73 43 -146 55 -351 56
-255 1 -269 -5 -290 -141 -9 -55 -34 -77 -79 -69 -58 11 -76 33 -97 124 -39
169 -94 247 -221 312 -114 59 -176 103 -293 206 -130 114 -166 139 -233 164
-31 12 -75 34 -99 50 -74 50 -84 53 -231 60 l-143 6 -109 57 c-60 32 -141 69
-179 82 -39 14 -89 37 -113 50 -39 22 -54 25 -157 25 -135 0 -205 -16 -309
-71 -43 -23 -87 -39 -107 -39 -35 0 -65 21 -65 45 0 16 30 35 57 35 42 0 147
62 214 127 38 36 69 70 69 75 0 22 -221 196 -365 287 -125 78 -185 125 -337
262 -152 139 -269 218 -319 219 -9 0 -45 -20 -80 -44 -36 -24 -98 -60 -139
-81 -41 -21 -94 -51 -118 -67 -23 -16 -75 -43 -115 -59 -93 -39 -127 -71 -127
-120 0 -71 55 -98 287 -139 127 -23 171 -41 143 -60 -20 -13 -301 -13 -375 1
-91 17 -113 31 -120 81 -21 141 111 355 249 407 100 37 136 60 243 159 l106
96 -6 121 c-12 241 -81 387 -234 487 -82 55 -267 156 -291 159 -33 5 -61 -13
-121 -77 -71 -76 -104 -135 -127 -230 -9 -38 -39 -116 -68 -174 l-51 -105 -5
-170 -5 -170 -100 -6 c-131 -7 -182 -24 -258 -86 -48 -38 -109 -24 -72 16 9
10 67 46 129 80 117 64 157 97 176 145 6 16 17 84 25 152 16 137 32 179 89
232 49 46 46 82 -12 144 l-25 28 26 52 c30 60 34 105 12 134 -22 29 -18 67 11
110 39 57 195 224 210 224 7 0 23 -15 35 -32 60 -85 135 -151 219 -193 223
-110 368 -191 400 -225 44 -45 84 -128 100 -205 6 -33 29 -97 51 -141 21 -45
39 -87 39 -94 0 -28 65 -131 127 -201 94 -105 120 -143 139 -202 23 -72 47
-94 125 -117 61 -18 80 -32 194 -133 270 -239 333 -287 409 -316 30 -11 94
-46 144 -78 50 -32 116 -74 149 -95 32 -20 120 -89 196 -153 76 -63 150 -118
165 -121 19 -4 54 7 115 36 49 22 128 52 175 65 48 14 97 30 109 37 36 18 63
85 63 156 0 52 -6 72 -40 136 -22 42 -46 99 -54 128 -21 77 -29 256 -17 383
10 98 16 118 52 190 31 59 48 110 64 194 16 77 31 124 46 145 135 181 168 299
176 626 6 241 -5 336 -52 438 -43 95 -96 136 -205 162 l-65 16 -38 76 c-41 82
-85 136 -268 325 -117 121 -118 121 -171 127 -29 3 -262 8 -518 10 -256 3
-528 10 -605 16 -136 11 -142 12 -230 56 -74 37 -108 47 -193 59 -115 16 -146
29 -189 79 -38 42 -57 98 -83 246 -27 153 -34 173 -81 214 -55 51 -100 50
-166 -3z m-1247 -2166 c-12 -108 -27 -155 -52 -171 -15 -10 -56 -18 -107 -21
-105 -7 -137 7 -169 75 -45 92 -101 108 -362 100 -203 -7 -222 -13 -266 -97
-37 -70 -70 -95 -122 -95 -91 -1 -107 106 -26 181 69 65 192 77 792 81 l319 2
-7 -55z m-1733 -243 c-43 -54 -46 -62 -58 -122 -10 -46 -17 -58 -46 -77 -55
-34 -79 -61 -79 -86 0 -56 78 -106 143 -93 17 4 61 24 98 46 87 53 182 74 305
66 159 -9 163 -29 19 -87 -151 -62 -203 -79 -280 -90 -115 -18 -152 -47 -179
-143 -9 -29 -31 -72 -49 -97 -52 -68 -65 -99 -83 -200 -21 -123 -32 -139 -88
-139 -26 0 -48 6 -56 15 -9 11 -11 77 -8 277 6 301 8 310 88 416 28 37 73 112
99 167 51 104 88 148 156 184 50 27 57 12 18 -37z m1721 -198 c19 -19 19 -21
4 -65 -19 -57 -59 -109 -103 -135 -74 -43 -83 -30 -31 49 19 28 40 72 46 97
16 65 51 87 84 54z m2770 -219 c24 -25 28 -51 12 -89 -17 -41 -58 -58 -83 -34
-18 19 -20 103 -3 123 16 19 54 19 74 0z m-4086 -555 c6 -90 -13 -131 -118
-249 -46 -53 -93 -117 -106 -147 -13 -30 -37 -72 -53 -94 -42 -58 -58 -117
-71 -255 -18 -208 -30 -278 -56 -325 -52 -96 -63 -128 -78 -218 -18 -114 -32
-137 -84 -145 -22 -4 -73 -29 -117 -58 -43 -28 -102 -61 -131 -74 -30 -13 -73
-37 -97 -53 -59 -42 -78 -43 -95 -9 -27 56 3 100 107 158 79 44 99 66 116 122
12 42 33 69 123 161 92 94 111 120 126 166 10 30 34 90 53 132 l36 77 -27 31
c-46 55 -44 65 39 247 42 92 92 215 112 273 38 117 56 142 113 159 54 16 96
54 127 115 14 28 32 59 41 69 15 17 16 17 25 1 6 -10 12 -47 15 -84z m1613
-112 c18 -6 63 -28 99 -49 89 -51 137 -62 232 -54 74 7 83 10 126 48 26 22 61
46 79 53 35 15 133 19 133 6 0 -19 -51 -54 -111 -76 -35 -13 -92 -42 -127 -64
-87 -56 -120 -66 -217 -60 -94 6 -153 29 -232 89 -60 45 -88 82 -79 104 7 18
50 20 97 3z m-1141 -143 c33 -40 20 -257 -20 -334 -10 -20 -70 -91 -132 -157
-175 -185 -181 -204 -182 -584 l-1 -265 27 -52 c15 -28 52 -78 81 -110 108
-118 138 -163 135 -202 -3 -31 -7 -36 -30 -39 -21 -3 -43 12 -110 73 -45 42
-97 84 -115 92 -29 15 -34 14 -75 -5 -23 -12 -77 -51 -118 -87 -140 -121 -297
-223 -438 -283 -71 -31 -211 -42 -230 -19 -18 21 -5 43 59 101 42 37 68 51
147 76 174 53 303 143 351 244 16 35 48 90 71 122 22 32 48 82 56 111 8 29 22
66 31 83 8 18 21 55 29 83 20 74 44 358 44 525 l0 142 121 133 c157 171 192
214 225 284 42 88 51 96 74 68z m540 -427 c164 -26 199 -45 380 -207 117 -105
181 -151 212 -151 7 0 38 -13 69 -30 61 -31 130 -45 289 -55 114 -7 153 -18
201 -56 39 -30 93 -56 173 -84 103 -37 222 -155 156 -155 -12 0 -34 8 -48 19
-15 10 -62 33 -104 51 -42 17 -104 49 -136 71 -82 55 -189 73 -397 66 -173 -6
-269 -25 -372 -72 -112 -52 -173 -57 -173 -15 0 19 70 87 171 166 32 26 59 55
59 65 0 24 -108 120 -173 152 -29 15 -91 34 -137 43 -63 11 -114 29 -197 71
-103 52 -117 56 -180 56 -77 0 -127 -19 -207 -80 -39 -30 -58 -37 -95 -37 -59
-1 -62 21 -7 41 22 7 78 41 124 75 47 34 101 67 121 75 39 14 150 11 271 -9z
m1236 -19 c53 -5 177 -33 277 -60 150 -41 203 -61 304 -114 155 -81 240 -136
328 -215 108 -96 184 -150 260 -185 113 -51 348 -261 401 -357 27 -51 29 -60
32 -201 5 -167 -5 -221 -47 -261 -27 -26 -105 -59 -115 -49 -14 14 -4 53 27
99 29 45 32 56 35 142 2 51 1 109 -3 129 -9 52 -45 83 -94 83 -35 0 -50 8
-108 59 -156 135 -339 340 -398 444 -45 80 -43 78 -220 153 -60 25 -141 59
-179 75 -85 36 -191 64 -321 84 -124 18 -165 30 -235 65 -82 41 -143 58 -264
75 -117 17 -141 24 -110 36 29 12 322 10 430 -2z m2657 -521 c4 -18 11 -80 17
-137 17 -156 35 -183 167 -249 85 -43 154 -69 248 -93 168 -42 165 -39 175
-174 7 -82 12 -98 53 -175 57 -107 76 -193 59 -281 -20 -110 -53 -164 -170
-279 -170 -168 -241 -207 -426 -235 -162 -24 -195 -43 -219 -125 -22 -77 -68
-78 -82 -2 -12 65 -54 94 -190 131 -44 12 -118 43 -165 68 -47 26 -112 54
-144 62 -80 22 -105 53 -87 111 23 76 106 146 163 138 20 -3 24 -10 28 -53 3
-27 11 -59 17 -70 35 -63 157 -138 260 -161 90 -20 125 -15 211 29 40 21 107
43 167 56 126 26 208 68 295 148 77 72 160 176 160 202 0 10 -16 36 -35 58
l-35 42 25 37 c35 51 32 96 -10 181 -44 88 -111 153 -190 182 -32 12 -107 51
-166 87 -135 82 -247 128 -383 158 -59 13 -110 26 -114 30 -15 16 41 44 138
71 100 27 141 49 160 86 6 10 15 53 20 94 5 42 12 81 15 86 13 20 33 7 38 -23z
m1412 -409 c104 -49 330 -274 379 -379 28 -60 31 -74 31 -170 0 -96 -2 -109
-27 -150 -33 -58 -121 -140 -148 -140 -17 0 -20 6 -20 40 0 48 13 78 64 153
l39 58 -35 72 c-20 39 -41 90 -48 112 -7 22 -31 65 -55 96 -52 69 -63 88 -81
148 -19 64 -49 90 -136 113 -40 10 -79 25 -87 33 -38 38 51 48 124 14z m-3698
-121 c46 -21 127 -102 120 -121 -7 -22 -107 -12 -167 17 -69 32 -105 33 -180
1 -85 -36 -174 -55 -256 -55 -61 0 -81 -5 -151 -39 -124 -60 -207 -75 -413
-75 -200 0 -261 11 -366 70 -40 22 -105 45 -175 63 -119 29 -136 40 -125 85
12 47 49 76 99 76 37 0 58 -9 125 -54 45 -29 98 -56 119 -60 21 -4 75 -25 119
-48 105 -52 189 -61 277 -29 31 12 81 30 110 40 35 13 115 25 233 36 200 18
231 24 324 67 126 58 222 66 307 26z m-2482 -601 c17 -12 55 -42 86 -69 99
-84 113 -87 422 -103 369 -19 395 -23 424 -51 26 -27 31 -75 8 -94 -12 -10
-23 -10 -58 3 -80 29 -101 30 -179 3 -95 -33 -120 -33 -210 3 -97 39 -213 51
-495 51 -300 -1 -396 -10 -476 -48 -134 -62 -198 -63 -336 -3 -180 78 -261 74
-405 -17 -38 -24 -53 -29 -63 -21 -27 23 -9 91 41 158 53 71 107 86 196 55 25
-9 90 -25 145 -35 71 -14 115 -29 150 -50 77 -48 113 -49 198 -6 68 35 81 37
212 47 77 6 152 13 166 16 38 7 58 34 76 100 26 101 32 105 98 61z m5615 -538
c0 -20 -21 -49 -35 -49 -21 0 -27 17 -15 40 11 21 50 28 50 9z m-286 -115 c27
-11 18 -50 -19 -83 -49 -43 -75 -55 -200 -91 -60 -18 -122 -41 -137 -51 -14
-11 -34 -41 -44 -67 -22 -59 -52 -94 -79 -90 -32 5 -32 59 0 115 59 100 137
162 236 188 28 8 69 26 92 41 59 39 113 52 151 38z m-1756 -233 c46 -5 86 -12
89 -15 21 -21 -56 -33 -264 -42 -144 -6 -165 -5 -188 10 -38 25 -29 50 20 56
50 7 234 1 343 -9z"/>
</g>
</svg>
